<svg width="400" height="50" viewBox="0 0 400 50" fill="none" xmlns="http://www.w3.org/2000/svg">
<g clip-path="url(#clip0_1_2)">
<rect y="36" width="400" height="14" fill="white"/>
<rect x="-5.26222" y="27.7652" width="4" height="18" transform="rotate(-30.455 -5.26222 27.7652)" fill="white"/>
<rect x="41.7378" y="32.0231" width="4" height="18" transform="rotate(-30.455 41.7378 32.0231)" fill="white"/>
<rect x="86.7378" y="26.0231" width="4" height="18" transform="rotate(-30.455 86.7378 26.0231)" fill="white"/>
<rect x="133.738" y="29.0231" width="4" height="18" transform="rotate(-30.455 133.738 29.0231)" fill="white"/>
<rect x="182.738" y="24.0231" width="4" height="18" transform="rotate(-30.455 182.738 24.0231)" fill="white"/>
<rect x="227.738" y="29.0231" width="4" height="18" transform="rotate(-30.455 227.738 29.0231)" fill="white"/>
<rect x="274.738" y="24.0231" width="4" height="18" transform="rotate(-30.455 274.738 24.0231)" fill="white"/>
<rect x="319.738" y="28.0231" width="4" height="18" transform="rotate(-30.455 319.738 28.0231)" fill="white"/>
<rect x="367.738" y="23.0231" width="4" height="18" transform="rotate(-30.455 367.738 23.0231)" fill="white"/>
<rect x="10.1308" y="25.8296" width="4" height="18" transform="rotate(32.2248 10.1308 25.8296)" fill="white"/>
<rect x="57.1308" y="30.0874" width="4" height="18" transform="rotate(32.2248 57.1308 30.0874)" fill="white"/>
<rect x="102.131" y="24.0874" width="4" height="18" transform="rotate(32.2248 102.131 24.0874)" fill="white"/>
<rect x="149.131" y="27.0874" width="4" height="18" transform="rotate(32.2248 149.131 27.0874)" fill="white"/>
<rect x="198.131" y="22.0874" width="4" height="18" transform="rotate(32.2248 198.131 22.0874)" fill="white"/>
<rect x="243.131" y="27.0874" width="4" height="18" transform="rotate(32.2248 243.131 27.0874)" fill="white"/>
<rect x="290.131" y="22.0874" width="4" height="18" transform="rotate(32.2248 290.131 22.0874)" fill="white"/>
<rect x="335.131" y="26.0874" width="4" height="18" transform="rotate(32.2248 335.131 26.0874)" fill="white"/>
<rect x="383.131" y="21.0874" width="4" height="18" transform="rotate(32.2248 383.131 21.0874)" fill="white"/>
<rect x="18.1003" y="25.2584" width="4" height="18" transform="rotate(17.8237 18.1003 25.2584)" fill="white"/>
<rect x="65.1003" y="29.5162" width="4" height="18" transform="rotate(17.8237 65.1003 29.5162)" fill="white"/>
<rect x="110.1" y="23.5162" width="4" height="18" transform="rotate(17.8237 110.1 23.5162)" fill="white"/>
<rect x="157.1" y="26.5162" width="4" height="18" transform="rotate(17.8237 157.1 26.5162)" fill="white"/>
<rect x="206.1" y="21.5162" width="4" height="18" transform="rotate(17.8237 206.1 21.5162)" fill="white"/>
<rect x="251.1" y="26.5162" width="4" height="18" transform="rotate(17.8237 251.1 26.5162)" fill="white"/>
<rect x="298.1" y="21.5162" width="4" height="18" transform="rotate(17.8237 298.1 21.5162)" fill="white"/>
<rect x="343.1" y="25.5162" width="4" height="18" transform="rotate(17.8237 343.1 25.5162)" fill="white"/>
<rect x="391.1" y="20.5162" width="4" height="18" transform="rotate(17.8237 391.1 20.5162)" fill="white"/>
<rect x="24.2728" y="30.8619" width="4" height="18" transform="rotate(-8.46948 24.2728 30.8619)" fill="white"/>
<rect x="71.2728" y="35.1197" width="4" height="18" transform="rotate(-8.46948 71.2728 35.1197)" fill="white"/>
<rect x="116.273" y="29.1197" width="4" height="18" transform="rotate(-8.46948 116.273 29.1197)" fill="white"/>
<rect x="163.273" y="32.1197" width="4" height="18" transform="rotate(-8.46948 163.273 32.1197)" fill="white"/>
<rect x="212.273" y="27.1197" width="4" height="18" transform="rotate(-8.46948 212.273 27.1197)" fill="white"/>
<rect x="257.273" y="32.1197" width="4" height="18" transform="rotate(-8.46948 257.273 32.1197)" fill="white"/>
<rect x="304.273" y="27.1197" width="4" height="18" transform="rotate(-8.46948 304.273 27.1197)" fill="white"/>
<rect x="349.273" y="31.1197" width="4" height="18" transform="rotate(-8.46948 349.273 31.1197)" fill="white"/>
<rect x="397.273" y="26.1197" width="4" height="18" transform="rotate(-8.46948 397.273 26.1197)" fill="white"/>
<rect x="34.6158" y="25.3314" width="4" height="18" transform="rotate(10.5136 34.6158 25.3314)" fill="white"/>
<rect x="81.6158" y="29.5892" width="4" height="18" transform="rotate(10.5136 81.6158 29.5892)" fill="white"/>
<rect x="126.616" y="23.5892" width="4" height="18" transform="rotate(10.5136 126.616 23.5892)" fill="white"/>
<rect x="173.616" y="26.5892" width="4" height="18" transform="rotate(10.5136 173.616 26.5892)" fill="white"/>
<rect x="222.616" y="21.5892" width="4" height="18" transform="rotate(10.5136 222.616 21.5892)" fill="white"/>
<rect x="267.616" y="26.5892" width="4" height="18" transform="rotate(10.5136 267.616 26.5892)" fill="white"/>
<rect x="314.616" y="21.5892" width="4" height="18" transform="rotate(10.5136 314.616 21.5892)" fill="white"/>
<rect x="359.616" y="25.5892" width="4" height="18" transform="rotate(10.5136 359.616 25.5892)" fill="white"/>
<circle cx="41.7378" cy="32.0231" r="2" transform="rotate(-30.455 41.7378 32.0231)" fill="white"/>
<circle cx="86.7378" cy="26.0231" r="2" transform="rotate(-30.455 86.7378 26.0231)" fill="white"/>
<circle cx="133.738" cy="29.0231" r="2" transform="rotate(-30.455 133.738 29.0231)" fill="white"/>
<circle cx="182.738" cy="24.0231" r="2" transform="rotate(-30.455 182.738 24.0231)" fill="white"/>
<circle cx="227.738" cy="29.0231" r="2" transform="rotate(-30.455 227.738 29.0231)" fill="white"/>
<circle cx="274.738" cy="24.0231" r="2" transform="rotate(-30.455 274.738 24.0231)" fill="white"/>
<circle cx="319.738" cy="28.0231" r="2" transform="rotate(-30.455 319.738 28.0231)" fill="white"/>
<circle cx="367.738" cy="23.0231" r="2" transform="rotate(-30.455 367.738 23.0231)" fill="white"/>
<circle cx="10.1308" cy="25.8296" r="2" transform="rotate(32.2248 10.1308 25.8296)" fill="white"/>
<circle cx="57.1308" cy="30.0874" r="2" transform="rotate(32.2248 57.1308 30.0874)" fill="white"/>
<circle cx="102.131" cy="24.0874" r="2" transform="rotate(32.2248 102.131 24.0874)" fill="white"/>
<circle cx="149.131" cy="27.0874" r="2" transform="rotate(32.2248 149.131 27.0874)" fill="white"/>
<circle cx="198.131" cy="22.0874" r="2" transform="rotate(32.2248 198.131 22.0874)" fill="white"/>
<circle cx="243.131" cy="27.0874" r="2" transform="rotate(32.2248 243.131 27.0874)" fill="white"/>
<circle cx="290.131" cy="22.0874" r="2" transform="rotate(32.2248 290.131 22.0874)" fill="white"/>
<circle cx="335.131" cy="26.0874" r="2" transform="rotate(32.2248 335.131 26.0874)" fill="white"/>
<circle cx="383.131" cy="21.0874" r="2" transform="rotate(32.2248 383.131 21.0874)" fill="white"/>
<circle cx="18.1003" cy="25.2584" r="2" transform="rotate(17.8237 18.1003 25.2584)" fill="white"/>
<circle cx="65.1003" cy="29.5162" r="2" transform="rotate(17.8237 65.1003 29.5162)" fill="white"/>
<circle cx="110.1" cy="23.5162" r="2" transform="rotate(17.8237 110.1 23.5162)" fill="white"/>
<circle cx="157.1" cy="26.5162" r="2" transform="rotate(17.8237 157.1 26.5162)" fill="white"/>
<circle cx="206.1" cy="21.5162" r="2" transform="rotate(17.8237 206.1 21.5162)" fill="white"/>
<circle cx="251.1" cy="26.5162" r="2" transform="rotate(17.8237 251.1 26.5162)" fill="white"/>
<circle cx="298.1" cy="21.5162" r="2" transform="rotate(17.8237 298.1 21.5162)" fill="white"/>
<circle cx="343.1" cy="25.5162" r="2" transform="rotate(17.8237 343.1 25.5162)" fill="white"/>
<circle cx="391.1" cy="20.5162" r="2" transform="rotate(17.8237 391.1 20.5162)" fill="white"/>
<circle cx="24.2728" cy="30.8619" r="2" transform="rotate(-8.46948 24.2728 30.8619)" fill="white"/>
<circle cx="71.2728" cy="35.1197" r="2" transform="rotate(-8.46948 71.2728 35.1197)" fill="white"/>
<circle cx="116.273" cy="29.1197" r="2" transform="rotate(-8.46948 116.273 29.1197)" fill="white"/>
<circle cx="163.273" cy="32.1197" r="2" transform="rotate(-8.46948 163.273 32.1197)" fill="white"/>
<circle cx="212.273" cy="27.1197" r="2" transform="rotate(-8.46948 212.273 27.1197)" fill="white"/>
<circle cx="257.273" cy="32.1197" r="2" transform="rotate(-8.46948 257.273 32.1197)" fill="white"/>
<circle cx="304.273" cy="27.1197" r="2" transform="rotate(-8.46948 304.273 27.1197)" fill="white"/>
<circle cx="349.273" cy="31.1197" r="2" transform="rotate(-8.46948 349.273 31.1197)" fill="white"/>
<circle cx="397.273" cy="26.1197" r="2" transform="rotate(-8.46948 397.273 26.1197)" fill="white"/>
<circle cx="34.6158" cy="25.3314" r="2" transform="rotate(10.5136 34.6158 25.3314)" fill="white"/>
<circle cx="81.6158" cy="29.5892" r="2" transform="rotate(10.5136 81.6158 29.5892)" fill="white"/>
<circle cx="126.616" cy="23.5892" r="2" transform="rotate(10.5136 126.616 23.5892)" fill="white"/>
<circle cx="173.616" cy="26.5892" r="2" transform="rotate(10.5136 173.616 26.5892)" fill="white"/>
<circle cx="222.616" cy="21.5892" r="2" transform="rotate(10.5136 222.616 21.5892)" fill="white"/>
<circle cx="267.616" cy="26.5892" r="2" transform="rotate(10.5136 267.616 26.5892)" fill="white"/>
<circle cx="314.616" cy="21.5892" r="2" transform="rotate(10.5136 314.616 21.5892)" fill="white"/>
<circle cx="359.616" cy="25.5892" r="2" transform="rotate(10.5136 359.616 25.5892)" fill="white"/>
<circle cx="3.86129" cy="43.2817" r="2" transform="rotate(-30.455 3.86129 43.2817)" fill="white"/>
<circle cx="50.8613" cy="47.5395" r="2" transform="rotate(-30.455 50.8613 47.5395)" fill="white"/>
<circle cx="95.8613" cy="41.5395" r="2" transform="rotate(-30.455 95.8613 41.5395)" fill="white"/>
<circle cx="142.861" cy="44.5395" r="2" transform="rotate(-30.455 142.861 44.5395)" fill="white"/>
<circle cx="191.861" cy="39.5395" r="2" transform="rotate(-30.455 191.861 39.5395)" fill="white"/>
<circle cx="236.861" cy="44.5395" r="2" transform="rotate(-30.455 236.861 44.5395)" fill="white"/>
<circle cx="283.861" cy="39.5395" r="2" transform="rotate(-30.455 283.861 39.5395)" fill="white"/>
<circle cx="328.861" cy="43.5395" r="2" transform="rotate(-30.455 328.861 43.5395)" fill="white"/>
<circle cx="376.861" cy="38.5395" r="2" transform="rotate(-30.455 376.861 38.5395)" fill="white"/>
<circle cx="0.532484" cy="41.0569" r="2" transform="rotate(32.2248 0.532484 41.0569)" fill="white"/>
<circle cx="47.5325" cy="45.3148" r="2" transform="rotate(32.2248 47.5325 45.3148)" fill="white"/>
<circle cx="92.5325" cy="39.3148" r="2" transform="rotate(32.2248 92.5325 39.3148)" fill="white"/>
<circle cx="139.532" cy="42.3148" r="2" transform="rotate(32.2248 139.532 42.3148)" fill="white"/>
<circle cx="188.532" cy="37.3148" r="2" transform="rotate(32.2248 188.532 37.3148)" fill="white"/>
<circle cx="233.532" cy="42.3148" r="2" transform="rotate(32.2248 233.532 42.3148)" fill="white"/>
<circle cx="280.532" cy="37.3148" r="2" transform="rotate(32.2248 280.532 37.3148)" fill="white"/>
<circle cx="325.532" cy="41.3148" r="2" transform="rotate(32.2248 325.532 41.3148)" fill="white"/>
<circle cx="373.532" cy="36.3148" r="2" transform="rotate(32.2248 373.532 36.3148)" fill="white"/>
<circle cx="12.5907" cy="42.3944" r="2" transform="rotate(17.8237 12.5907 42.3944)" fill="white"/>
<circle cx="59.5907" cy="46.6522" r="2" transform="rotate(17.8237 59.5907 46.6522)" fill="white"/>
<circle cx="104.591" cy="40.6522" r="2" transform="rotate(17.8237 104.591 40.6522)" fill="white"/>
<circle cx="151.591" cy="43.6522" r="2" transform="rotate(17.8237 151.591 43.6522)" fill="white"/>
<circle cx="200.591" cy="38.6522" r="2" transform="rotate(17.8237 200.591 38.6522)" fill="white"/>
<circle cx="245.591" cy="43.6522" r="2" transform="rotate(17.8237 245.591 43.6522)" fill="white"/>
<circle cx="292.591" cy="38.6522" r="2" transform="rotate(17.8237 292.591 38.6522)" fill="white"/>
<circle cx="337.591" cy="42.6522" r="2" transform="rotate(17.8237 337.591 42.6522)" fill="white"/>
<circle cx="385.591" cy="37.6522" r="2" transform="rotate(17.8237 385.591 37.6522)" fill="white"/>
<circle cx="26.9238" cy="48.6656" r="2" transform="rotate(-8.46948 26.9238 48.6656)" fill="white"/>
<circle cx="118.924" cy="46.9234" r="2" transform="rotate(-8.46948 118.924 46.9234)" fill="white"/>
<circle cx="165.924" cy="49.9234" r="2" transform="rotate(-8.46948 165.924 49.9234)" fill="white"/>
<circle cx="214.924" cy="44.9234" r="2" transform="rotate(-8.46948 214.924 44.9234)" fill="white"/>
<circle cx="259.924" cy="49.9234" r="2" transform="rotate(-8.46948 259.924 49.9234)" fill="white"/>
<circle cx="306.924" cy="44.9234" r="2" transform="rotate(-8.46948 306.924 44.9234)" fill="white"/>
<circle cx="351.924" cy="48.9234" r="2" transform="rotate(-8.46948 351.924 48.9234)" fill="white"/>
<circle cx="399.924" cy="43.9234" r="2" transform="rotate(-8.46948 399.924 43.9234)" fill="white"/>
<circle cx="31.3314" cy="43.0292" r="2" transform="rotate(10.5136 31.3314 43.0292)" fill="white"/>
<circle cx="78.3314" cy="47.287" r="2" transform="rotate(10.5136 78.3314 47.287)" fill="white"/>
<circle cx="123.331" cy="41.287" r="2" transform="rotate(10.5136 123.331 41.287)" fill="white"/>
<circle cx="170.331" cy="44.287" r="2" transform="rotate(10.5136 170.331 44.287)" fill="white"/>
<circle cx="219.331" cy="39.287" r="2" transform="rotate(10.5136 219.331 39.287)" fill="white"/>
<circle cx="264.331" cy="44.287" r="2" transform="rotate(10.5136 264.331 44.287)" fill="white"/>
<circle cx="311.331" cy="39.287" r="2" transform="rotate(10.5136 311.331 39.287)" fill="white"/>
<circle cx="356.331" cy="43.287" r="2" transform="rotate(10.5136 356.331 43.287)" fill="white"/>
<circle cx="7.3094" cy="41.2543" r="2" transform="rotate(-30.455 7.3094 41.2543)" fill="white"/>
<circle cx="54.3094" cy="45.5121" r="2" transform="rotate(-30.455 54.3094 45.5121)" fill="white"/>
<circle cx="99.3094" cy="39.5121" r="2" transform="rotate(-30.455 99.3094 39.5121)" fill="white"/>
<circle cx="146.309" cy="42.5121" r="2" transform="rotate(-30.455 146.309 42.5121)" fill="white"/>
<circle cx="195.309" cy="37.5121" r="2" transform="rotate(-30.455 195.309 37.5121)" fill="white"/>
<circle cx="240.309" cy="42.5121" r="2" transform="rotate(-30.455 240.309 42.5121)" fill="white"/>
<circle cx="287.309" cy="37.5121" r="2" transform="rotate(-30.455 287.309 37.5121)" fill="white"/>
<circle cx="332.309" cy="41.5121" r="2" transform="rotate(-30.455 332.309 41.5121)" fill="white"/>
<circle cx="380.309" cy="36.5121" r="2" transform="rotate(-30.455 380.309 36.5121)" fill="white"/>
<circle cx="3.91633" cy="43.1899" r="2" transform="rotate(32.2248 3.91633 43.1899)" fill="white"/>
<circle cx="50.9163" cy="47.4477" r="2" transform="rotate(32.2248 50.9163 47.4477)" fill="white"/>
<circle cx="95.9163" cy="41.4477" r="2" transform="rotate(32.2248 95.9163 41.4477)" fill="white"/>
<circle cx="142.916" cy="44.4477" r="2" transform="rotate(32.2248 142.916 44.4477)" fill="white"/>
<circle cx="191.916" cy="39.4477" r="2" transform="rotate(32.2248 191.916 39.4477)" fill="white"/>
<circle cx="236.916" cy="44.4477" r="2" transform="rotate(32.2248 236.916 44.4477)" fill="white"/>
<circle cx="283.916" cy="39.4477" r="2" transform="rotate(32.2248 283.916 39.4477)" fill="white"/>
<circle cx="328.916" cy="43.4477" r="2" transform="rotate(32.2248 328.916 43.4477)" fill="white"/>
<circle cx="376.916" cy="38.4477" r="2" transform="rotate(32.2248 376.916 38.4477)" fill="white"/>
<circle cx="16.3987" cy="43.6188" r="2" transform="rotate(17.8237 16.3987 43.6188)" fill="white"/>
<circle cx="63.3987" cy="47.8766" r="2" transform="rotate(17.8237 63.3987 47.8766)" fill="white"/>
<circle cx="108.399" cy="41.8766" r="2" transform="rotate(17.8237 108.399 41.8766)" fill="white"/>
<circle cx="155.399" cy="44.8766" r="2" transform="rotate(17.8237 155.399 44.8766)" fill="white"/>
<circle cx="204.399" cy="39.8766" r="2" transform="rotate(17.8237 204.399 39.8766)" fill="white"/>
<circle cx="249.399" cy="44.8766" r="2" transform="rotate(17.8237 249.399 44.8766)" fill="white"/>
<circle cx="296.399" cy="39.8766" r="2" transform="rotate(17.8237 296.399 39.8766)" fill="white"/>
<circle cx="341.399" cy="43.8766" r="2" transform="rotate(17.8237 341.399 43.8766)" fill="white"/>
<circle cx="389.399" cy="38.8766" r="2" transform="rotate(17.8237 389.399 38.8766)" fill="white"/>
<circle cx="30.8802" cy="48.0765" r="2" transform="rotate(-8.46948 30.8802 48.0765)" fill="white"/>
<circle cx="122.88" cy="46.3343" r="2" transform="rotate(-8.46948 122.88 46.3343)" fill="white"/>
<circle cx="169.88" cy="49.3343" r="2" transform="rotate(-8.46948 169.88 49.3343)" fill="white"/>
<circle cx="218.88" cy="44.3343" r="2" transform="rotate(-8.46948 218.88 44.3343)" fill="white"/>
<circle cx="263.88" cy="49.3343" r="2" transform="rotate(-8.46948 263.88 49.3343)" fill="white"/>
<circle cx="310.88" cy="44.3343" r="2" transform="rotate(-8.46948 310.88 44.3343)" fill="white"/>
<circle cx="355.88" cy="48.3343" r="2" transform="rotate(-8.46948 355.88 48.3343)" fill="white"/>
<circle cx="35.2642" cy="43.759" r="2" transform="rotate(10.5136 35.2642 43.759)" fill="white"/>
<circle cx="82.2642" cy="48.0169" r="2" transform="rotate(10.5136 82.2642 48.0169)" fill="white"/>
<circle cx="127.264" cy="42.0169" r="2" transform="rotate(10.5136 127.264 42.0169)" fill="white"/>
<circle cx="174.264" cy="45.0169" r="2" transform="rotate(10.5136 174.264 45.0169)" fill="white"/>
<circle cx="223.264" cy="40.0169" r="2" transform="rotate(10.5136 223.264 40.0169)" fill="white"/>
<circle cx="268.264" cy="45.0169" r="2" transform="rotate(10.5136 268.264 45.0169)" fill="white"/>
<circle cx="315.264" cy="40.0169" r="2" transform="rotate(10.5136 315.264 40.0169)" fill="white"/>
<circle cx="360.264" cy="44.0169" r="2" transform="rotate(10.5136 360.264 44.0169)" fill="white"/>
<circle cx="-1.81411" cy="25.7378" r="2" transform="rotate(-30.455 -1.81411 25.7378)" fill="white"/>
<circle cx="45.1859" cy="29.9956" r="2" transform="rotate(-30.455 45.1859 29.9956)" fill="white"/>
<circle cx="90.1859" cy="23.9956" r="2" transform="rotate(-30.455 90.1859 23.9956)" fill="white"/>
<circle cx="137.186" cy="26.9956" r="2" transform="rotate(-30.455 137.186 26.9956)" fill="white"/>
<circle cx="186.186" cy="21.9956" r="2" transform="rotate(-30.455 186.186 21.9956)" fill="white"/>
<circle cx="231.186" cy="26.9956" r="2" transform="rotate(-30.455 231.186 26.9956)" fill="white"/>
<circle cx="278.186" cy="21.9956" r="2" transform="rotate(-30.455 278.186 21.9956)" fill="white"/>
<circle cx="323.186" cy="25.9956" r="2" transform="rotate(-30.455 323.186 25.9956)" fill="white"/>
<circle cx="371.186" cy="20.9956" r="2" transform="rotate(-30.455 371.186 20.9956)" fill="white"/>
<circle cx="13.5147" cy="27.9626" r="2" transform="rotate(32.2248 13.5147 27.9626)" fill="white"/>
<circle cx="60.5147" cy="32.2204" r="2" transform="rotate(32.2248 60.5147 32.2204)" fill="white"/>
<circle cx="105.515" cy="26.2204" r="2" transform="rotate(32.2248 105.515 26.2204)" fill="white"/>
<circle cx="152.515" cy="29.2204" r="2" transform="rotate(32.2248 152.515 29.2204)" fill="white"/>
<circle cx="201.515" cy="24.2204" r="2" transform="rotate(32.2248 201.515 24.2204)" fill="white"/>
<circle cx="246.515" cy="29.2204" r="2" transform="rotate(32.2248 246.515 29.2204)" fill="white"/>
<circle cx="293.515" cy="24.2204" r="2" transform="rotate(32.2248 293.515 24.2204)" fill="white"/>
<circle cx="338.515" cy="28.2204" r="2" transform="rotate(32.2248 338.515 28.2204)" fill="white"/>
<circle cx="386.515" cy="23.2204" r="2" transform="rotate(32.2248 386.515 23.2204)" fill="white"/>
<circle cx="21.9083" cy="26.4827" r="2" transform="rotate(17.8237 21.9083 26.4827)" fill="white"/>
<circle cx="68.9083" cy="30.7405" r="2" transform="rotate(17.8237 68.9083 30.7405)" fill="white"/>
<circle cx="113.908" cy="24.7405" r="2" transform="rotate(17.8237 113.908 24.7405)" fill="white"/>
<circle cx="160.908" cy="27.7405" r="2" transform="rotate(17.8237 160.908 27.7405)" fill="white"/>
<circle cx="209.908" cy="22.7405" r="2" transform="rotate(17.8237 209.908 22.7405)" fill="white"/>
<circle cx="254.908" cy="27.7405" r="2" transform="rotate(17.8237 254.908 27.7405)" fill="white"/>
<circle cx="301.908" cy="22.7405" r="2" transform="rotate(17.8237 301.908 22.7405)" fill="white"/>
<circle cx="346.908" cy="26.7405" r="2" transform="rotate(17.8237 346.908 26.7405)" fill="white"/>
<circle cx="394.908" cy="21.7405" r="2" transform="rotate(17.8237 394.908 21.7405)" fill="white"/>
<circle cx="28.2291" cy="30.2728" r="2" transform="rotate(-8.46948 28.2291 30.2728)" fill="white"/>
<circle cx="75.2291" cy="34.5306" r="2" transform="rotate(-8.46948 75.2291 34.5306)" fill="white"/>
<circle cx="120.229" cy="28.5306" r="2" transform="rotate(-8.46948 120.229 28.5306)" fill="white"/>
<circle cx="167.229" cy="31.5306" r="2" transform="rotate(-8.46948 167.229 31.5306)" fill="white"/>
<circle cx="216.229" cy="26.5306" r="2" transform="rotate(-8.46948 216.229 26.5306)" fill="white"/>
<circle cx="261.229" cy="31.5306" r="2" transform="rotate(-8.46948 261.229 31.5306)" fill="white"/>
<circle cx="308.229" cy="26.5306" r="2" transform="rotate(-8.46948 308.229 26.5306)" fill="white"/>
<circle cx="353.229" cy="30.5306" r="2" transform="rotate(-8.46948 353.229 30.5306)" fill="white"/>
<circle cx="401.229" cy="25.5306" r="2" transform="rotate(-8.46948 401.229 25.5306)" fill="white"/>
<circle cx="38.5486" cy="26.0612" r="2" transform="rotate(10.5136 38.5486 26.0612)" fill="white"/>
<circle cx="85.5486" cy="30.3191" r="2" transform="rotate(10.5136 85.5486 30.3191)" fill="white"/>
<circle cx="130.549" cy="24.3191" r="2" transform="rotate(10.5136 130.549 24.3191)" fill="white"/>
<circle cx="177.549" cy="27.3191" r="2" transform="rotate(10.5136 177.549 27.3191)" fill="white"/>
<circle cx="226.549" cy="22.3191" r="2" transform="rotate(10.5136 226.549 22.3191)" fill="white"/>
<circle cx="271.549" cy="27.3191" r="2" transform="rotate(10.5136 271.549 27.3191)" fill="white"/>
<circle cx="318.549" cy="22.3191" r="2" transform="rotate(10.5136 318.549 22.3191)" fill="white"/>
<circle cx="363.549" cy="26.3191" r="2" transform="rotate(10.5136 363.549 26.3191)" fill="white"/>
</g>
<defs>
<clipPath id="clip0_1_2">
<rect width="400" height="50" fill="white"/>
</clipPath>
</defs>
</svg>
